<svg width="200" height="200" viewBox="0 0 200 200" fill="none" xmlns="http://www.w3.org/2000/svg">
<circle cx="100" cy="100" r="98" fill="url(#paint0_radial_cd)" stroke="#E2E2E2" stroke-width="2"/>
<circle cx="100" cy="100" r="30" fill="#050505"/>
<circle cx="100" cy="100" r="10" fill="transparent" stroke="#333" stroke-width="1"/>
<defs>
<radialGradient id="paint0_radial_cd" cx="0" cy="0" r="1" gradientUnits="userSpaceOnUse" gradientTransform="translate(100 100) rotate(90) scale(98)">
<stop offset="0.3" stop-color="#E0E0E0"/>
<stop offset="0.5" stop-color="#FFFFFF"/>
<stop offset="0.6" stop-color="#C0C0C0"/>
<stop offset="0.75" stop-color="#E8E8E8"/>
<stop offset="0.85" stop-color="#D6D6D6"/>
<stop offset="1" stop-color="#B0B0B0"/>
</radialGradient>
</defs>
<!-- Holographic sheen overlay -->
<path d="M100 0C44.77 0 0 44.77 0 100C0 155.23 44.77 200 100 200C155.23 200 200 155.23 200 100C200 44.77 155.23 0 100 0ZM100 170C61.34 170 30 138.66 30 100C30 61.34 61.34 30 100 30C138.66 30 170 61.34 170 100C170 138.66 138.66 170 100 170Z" fill="url(#paint1_angular_holo)" fill-opacity="0.2"/>
<defs>
<radialGradient id="paint1_angular_holo" cx="0" cy="0" r="1" gradientUnits="userSpaceOnUse" gradientTransform="translate(100 100) rotate(45) scale(100)">
<stop stop-color="#FF0000" stop-opacity="0.2"/>
<stop offset="0.2" stop-color="#FFFF00" stop-opacity="0.2"/>
<stop offset="0.4" stop-color="#00FF00" stop-opacity="0.2"/>
<stop offset="0.6" stop-color="#00FFFF" stop-opacity="0.2"/>
<stop offset="0.8" stop-color="#0000FF" stop-opacity="0.2"/>
<stop offset="1" stop-color="#FF00FF" stop-opacity="0.2"/>
</radialGradient>
</defs>
</svg>
